<svg xmlns="http://www.w3.org/2000/svg" viewBox="0 0 1200 520" font-family="Inter, system-ui, sans-serif">
  <rect width="1200" height="520" fill="#F7F7F5"/>

  <text x="60" y="58" fill="#737373" font-family="JetBrains Mono, monospace" font-size="16" font-weight="500" letter-spacing="1.4">INDIVIDUAL · 1 PARTICIPANTE · 10 FUNÇÕES · SKILLS</text>
  <text x="60" y="108" fill="#1A1A1A" font-size="42" font-weight="500">Dez funções que você exerce</text>
  <text x="60" y="146" fill="#737373" font-size="20">Um participante exerce todas as funções como skills enquanto alterna os agentes de etapa.</text>

  <g transform="translate(40, 200)">
    <rect width="208" height="270" rx="4" fill="#FFFFFF" stroke="#E5E5E0" stroke-width="1"/>
    <rect x="0" y="0" width="208" height="6" fill="#F25022"/>
    <text x="18" y="44" fill="#B33816" font-family="JetBrains Mono, monospace" font-size="11" font-weight="500" letter-spacing="1.1">SKILLS DE VISÃO</text>
    <text x="18" y="82" fill="#1A1A1A" font-size="25" font-weight="500">Visão</text>
    <text x="18" y="112" fill="#737373" font-size="14">Você define valor e escopo.</text>
    <g transform="translate(18, 150)">
      <circle cx="8" cy="8" r="6" fill="#F25022"/>
      <text x="24" y="13" fill="#1A1A1A" font-size="15">Product Owner</text>
    </g>
    <g transform="translate(18, 184)">
      <circle cx="8" cy="8" r="6" fill="#F25022"/>
      <text x="24" y="13" fill="#1A1A1A" font-size="15">Engenheiro de Requisitos</text>
    </g>
  </g>

  <g transform="translate(268, 200)">
    <rect width="208" height="270" rx="4" fill="#FFFFFF" stroke="#E5E5E0" stroke-width="1"/>
    <rect x="0" y="0" width="208" height="6" fill="#FFB900"/>
    <text x="18" y="44" fill="#B88500" font-family="JetBrains Mono, monospace" font-size="11" font-weight="500" letter-spacing="1.1">SKILLS DE ARQUITETURA</text>
    <text x="18" y="82" fill="#1A1A1A" font-size="25" font-weight="500">Arquitetura</text>
    <text x="18" y="112" fill="#737373" font-size="13">Você projeta limites e decisões.</text>
    <g transform="translate(18, 150)">
      <circle cx="8" cy="8" r="6" fill="#FFB900"/>
      <text x="24" y="13" fill="#1A1A1A" font-size="15">Arquiteto Corporativo</text>
    </g>
    <g transform="translate(18, 184)">
      <circle cx="8" cy="8" r="6" fill="#FFB900"/>
      <text x="24" y="13" fill="#1A1A1A" font-size="15">Arquiteto de Software</text>
    </g>
  </g>

  <g transform="translate(496, 200)">
    <rect width="208" height="270" rx="4" fill="#FFFFFF" stroke="#E5E5E0" stroke-width="1"/>
    <rect x="0" y="0" width="208" height="6" fill="#7FBA00"/>
    <text x="18" y="44" fill="#5A8500" font-family="JetBrains Mono, monospace" font-size="11" font-weight="500" letter-spacing="1.1">SKILLS DE ENTREGA</text>
    <text x="18" y="82" fill="#1A1A1A" font-size="25" font-weight="500">Entrega</text>
    <text x="18" y="112" fill="#737373" font-size="13">Você coordena e entrega código.</text>
    <g transform="translate(18, 150)">
      <circle cx="8" cy="8" r="6" fill="#7FBA00"/>
      <text x="24" y="13" fill="#1A1A1A" font-size="15">Líder Técnico</text>
    </g>
    <g transform="translate(18, 184)">
      <circle cx="8" cy="8" r="6" fill="#7FBA00"/>
      <text x="24" y="13" fill="#1A1A1A" font-size="15">Desenvolvedor</text>
    </g>
  </g>

  <g transform="translate(724, 200)">
    <rect width="208" height="270" rx="4" fill="#FFFFFF" stroke="#E5E5E0" stroke-width="1"/>
    <rect x="0" y="0" width="208" height="6" fill="#00A4EF"/>
    <text x="18" y="44" fill="#0076AC" font-family="JetBrains Mono, monospace" font-size="11" font-weight="500" letter-spacing="1.1">SKILLS DE QUALIDADE</text>
    <text x="18" y="82" fill="#1A1A1A" font-size="25" font-weight="500">Qualidade</text>
    <text x="18" y="112" fill="#737373" font-size="13">Você lidera os dados entre as etapas.</text>
    <g transform="translate(18, 150)">
      <circle cx="8" cy="8" r="6" fill="#00A4EF"/>
      <text x="24" y="13" fill="#1A1A1A" font-size="15">DBA</text>
    </g>
    <g transform="translate(18, 184)">
      <circle cx="8" cy="8" r="6" fill="#00A4EF"/>
      <text x="24" y="13" fill="#1A1A1A" font-size="15">Engenheiro de QA</text>
    </g>
  </g>

  <g transform="translate(952, 200)">
    <rect width="208" height="270" rx="4" fill="#FFFFFF" stroke="#E5E5E0" stroke-width="1"/>
    <rect x="0" y="0" width="208" height="6" fill="#1B1B1F"/>
    <text x="18" y="44" fill="#555555" font-family="JetBrains Mono, monospace" font-size="11" font-weight="500" letter-spacing="1.1">SKILLS DE OPERAÇÕES</text>
    <text x="18" y="82" fill="#1A1A1A" font-size="25" font-weight="500">Operações</text>
    <text x="18" y="112" fill="#737373" font-size="14">Você opera e documenta.</text>
    <g transform="translate(18, 150)">
      <circle cx="8" cy="8" r="6" fill="#1B1B1F"/>
      <text x="24" y="13" fill="#1A1A1A" font-size="15">Engenheiro de DevOps</text>
    </g>
    <g transform="translate(18, 184)">
      <circle cx="8" cy="8" r="6" fill="#1B1B1F"/>
      <text x="24" y="13" fill="#1A1A1A" font-size="15">Redator Técnico</text>
    </g>
  </g>
</svg>
